<?xml version="1.0" encoding="utf-8"?>
<!-- Generator: Adobe Illustrator 25.2.0, SVG Export Plug-In . SVG Version: 6.00 Build 0)  -->
<svg version="1.1" id="Layer_1" xmlns="http://www.w3.org/2000/svg" xmlns:xlink="http://www.w3.org/1999/xlink" x="0px" y="0px"
	 viewBox="0 0 28 28" style="enable-background:new 0 0 28 28;" xml:space="preserve">
<style type="text/css">
	.st0{fill:#E5E5E5;}
	.st1{fill:#7A7A7A;enable-background:new    ;}
	.st2{fill:#565656;enable-background:new    ;}
	.st3{fill:#333333;enable-background:new    ;}
	.st4{fill:#9E9E9E;enable-background:new    ;}
</style>
<g>
	<g>
		<path class="st0" d="M0.7,24.3h5.8c0.1,0,0.2-0.1,0.2-0.1l3-6c0.1-0.2,0.3-0.2,0.4,0l3,6c0,0.1,0.1,0.1,0.2,0.1h5.9
			c0.2,0,0.3-0.2,0.2-0.4L11,5.9c0-0.1-0.1-0.1-0.2-0.1H9.1C9.1,5.8,9,5.8,8.9,5.9L0.5,24C0.4,24.2,0.5,24.3,0.7,24.3z"/>
	</g>
	<path class="st1" d="M21.9,24.2L12.5,4c-0.1-0.2,0-0.4,0.2-0.4h1.1c0.1,0,0.2,0.1,0.2,0.1L23.5,24c0.1,0.2,0,0.4-0.2,0.4h-1.1
		C22,24.3,22,24.3,21.9,24.2z"/>
	<path class="st2" d="M23.9,24.2L14.5,4c-0.1-0.2,0-0.4,0.2-0.4h1.1c0.1,0,0.2,0.1,0.2,0.1L25.5,24c0.1,0.2,0,0.4-0.2,0.4h-1.1
		C24.1,24.3,24,24.3,23.9,24.2z"/>
	<path class="st3" d="M26,24.2L16.5,4c-0.1-0.2,0-0.4,0.2-0.4h1.1c0.1,0,0.2,0.1,0.2,0.1L27.5,24c0.1,0.2,0,0.4-0.2,0.4h-1.1
		C26.1,24.3,26,24.3,26,24.2z"/>
	<path class="st4" d="M10.1,3.7h1.7c0.1,0,0.2,0.1,0.2,0.1L21.5,24c0.1,0.2,0,0.4-0.2,0.4h-1.1c-0.1,0-0.2-0.1-0.2-0.1L11.2,5.6
		c0-0.1-0.1-0.1-0.2-0.1H9.5c-0.2,0-0.3-0.2-0.2-0.4l0.6-1.3C9.9,3.7,10,3.7,10.1,3.7z"/>
</g>
</svg>
