<?xml version="1.0" encoding="utf-8"?>
<!-- Generator: Adobe Illustrator 25.2.0, SVG Export Plug-In . SVG Version: 6.00 Build 0)  -->
<svg version="1.1" xmlns="http://www.w3.org/2000/svg" xmlns:xlink="http://www.w3.org/1999/xlink" x="0px" y="0px"
	 viewBox="0 0 32 32" style="enable-background:new 0 0 32 32;" xml:space="preserve">
<style type="text/css">
	.st0{opacity:0.4;fill-rule:evenodd;clip-rule:evenodd;fill:url(#Shape_2_);enable-background:new    ;}
	.st1{opacity:0.2;fill:url(#Shape_3_);stroke:#C6C6C6;stroke-width:2;enable-background:new    ;}
	.st2{fill-rule:evenodd;clip-rule:evenodd;fill:url(#SVGID_1_);}
</style>
<g id="Layer_1">
</g>
<g id="Layer_3">
	<linearGradient id="Shape_2_" gradientUnits="userSpaceOnUse" x1="-14.3614" y1="-4.0274" x2="28.6461" y2="25.8033">
		<stop  offset="0" style="stop-color:#00A8DE"/>
		<stop  offset="0.2" style="stop-color:#333391"/>
		<stop  offset="0.4" style="stop-color:#E91388"/>
		<stop  offset="0.6" style="stop-color:#EB2D2E"/>
		<stop  offset="0.8" style="stop-color:#FDE92B"/>
		<stop  offset="1" style="stop-color:#009E54"/>
	</linearGradient>
	<path id="Shape" class="st0" d="M28.2,28.5c1.1-0.7,1.6-2,1.4-3.3l-1.3-7.9c-0.5-3.1-3.2-5.4-6.3-5.3L8.9,12l-4.2,7.9l20,8.4
		C25.7,29.1,27.1,29.2,28.2,28.5z"/>
	<linearGradient id="Shape_3_" gradientUnits="userSpaceOnUse" x1="-7.8704" y1="-0.486" x2="33.0096" y2="29.4134">
		<stop  offset="0" style="stop-color:#00A8DE"/>
		<stop  offset="0.2" style="stop-color:#333391"/>
		<stop  offset="0.4" style="stop-color:#E91388"/>
		<stop  offset="0.6" style="stop-color:#EB2D2E"/>
		<stop  offset="0.8" style="stop-color:#FDE92B"/>
		<stop  offset="1" style="stop-color:#009E54"/>
	</linearGradient>
	<path id="Shape_1_" class="st1" d="M9.5,13l-3.7,6.3l19.5,8.3l0,0c0.5,0.3,1,0.5,1.6,0.4c0.6-0.1,1.1-0.4,1.4-0.9
		c0.3-0.4,0.5-1,0.4-1.6l-1.3-8c-0.4-2.6-2.7-4.5-5.3-4.5L9.5,13z"/>
</g>
<g id="Isolation_Mode">
	<linearGradient id="SVGID_1_" gradientUnits="userSpaceOnUse" x1="-10.9739" y1="3.7574" x2="29.9061" y2="33.6567">
		<stop  offset="0" style="stop-color:#00A8DE"/>
		<stop  offset="0.2" style="stop-color:#333391"/>
		<stop  offset="0.4" style="stop-color:#E91388"/>
		<stop  offset="0.6" style="stop-color:#EB2D2E"/>
		<stop  offset="0.8" style="stop-color:#FDE92B"/>
		<stop  offset="1" style="stop-color:#009E54"/>
	</linearGradient>
	<path class="st2" d="M29.1,24.6l-14.2-8.1c-4.1-2.3-6.6-6.7-6.6-11.4v0c0-1.1-0.6-2-1.4-2.6c0,0-0.1-0.1-0.2-0.1
		C6.6,2.4,6.5,2.3,6.3,2.2c-0.1,0-0.1,0-0.2-0.1C6,2.1,5.9,2.1,5.8,2.1C5.1,1.9,4.4,2,3.8,2.3C2.6,2.9,2,4.1,2,5.4l0,14V25
		c0,2.8,2.2,5,5,5l19.7,0c0.7,0,1.4-0.2,2-0.6C30.3,28.3,30.4,26,29.1,24.6z M14,29.2c-3.1,0-5.7-2.5-5.7-5.7s2.5-5.7,5.7-5.7
		c3.1,0,5.7,2.5,5.7,5.7S17.1,29.2,14,29.2z"/>
</g>
</svg>
