<?xml version="1.0" encoding="utf-8"?>
<!-- Generator: Adobe Illustrator 25.2.0, SVG Export Plug-In . SVG Version: 6.00 Build 0)  -->
<svg version="1.1" id="Layer_1" xmlns="http://www.w3.org/2000/svg" xmlns:xlink="http://www.w3.org/1999/xlink" x="0px" y="0px"
	 viewBox="0 0 28 28" style="enable-background:new 0 0 28 28;" xml:space="preserve">
<style type="text/css">
	.st0{fill:url(#SVGID_1_);}
	.st1{fill:url(#SVGID_2_);}
	.st2{fill:url(#SVGID_3_);}
	.st3{fill:url(#SVGID_4_);}
	.st4{fill:url(#SVGID_5_);}
</style>
<g>
	<g>
		<linearGradient id="SVGID_1_" gradientUnits="userSpaceOnUse" x1="4.7796" y1="14.4892" x2="55.9585" y2="44.0372">
			<stop  offset="0" style="stop-color:#00A8DE"/>
			<stop  offset="0.2" style="stop-color:#333391"/>
			<stop  offset="0.4" style="stop-color:#E91388"/>
			<stop  offset="0.6" style="stop-color:#EB2D2E"/>
			<stop  offset="0.8" style="stop-color:#FDE92B"/>
			<stop  offset="1" style="stop-color:#009E54"/>
		</linearGradient>
		<path class="st0" d="M0.7,24.3h5.8c0.1,0,0.2-0.1,0.2-0.1l3-6c0.1-0.2,0.3-0.2,0.4,0l3,6c0,0.1,0.1,0.1,0.2,0.1h5.9
			c0.2,0,0.3-0.2,0.2-0.4L11,5.9c0-0.1-0.1-0.1-0.2-0.1H9.1C9.1,5.8,9,5.8,8.9,5.9L0.5,24C0.4,24.2,0.5,24.3,0.7,24.3z"/>
	</g>
	<linearGradient id="SVGID_2_" gradientUnits="userSpaceOnUse" x1="-22.4774" y1="-9.3549" x2="28.7014" y2="20.193">
		<stop  offset="0" style="stop-color:#00A8DE"/>
		<stop  offset="0.2" style="stop-color:#333391"/>
		<stop  offset="0.4" style="stop-color:#E91388"/>
		<stop  offset="0.6" style="stop-color:#EB2D2E"/>
		<stop  offset="0.8" style="stop-color:#FDE92B"/>
		<stop  offset="1" style="stop-color:#009E54"/>
	</linearGradient>
	<path class="st1" d="M21.9,24.2L12.5,4c-0.1-0.2,0-0.4,0.2-0.4h1.1c0.1,0,0.2,0.1,0.2,0.1L23.5,24c0.1,0.2,0,0.4-0.2,0.4h-1.1
		C22,24.3,22,24.3,21.9,24.2z"/>
	<linearGradient id="SVGID_3_" gradientUnits="userSpaceOnUse" x1="-11.9034" y1="-4.4182" x2="39.2754" y2="25.1298">
		<stop  offset="0" style="stop-color:#00A8DE"/>
		<stop  offset="0.2" style="stop-color:#333391"/>
		<stop  offset="0.4" style="stop-color:#E91388"/>
		<stop  offset="0.6" style="stop-color:#EB2D2E"/>
		<stop  offset="0.8" style="stop-color:#FDE92B"/>
		<stop  offset="1" style="stop-color:#009E54"/>
	</linearGradient>
	<path class="st2" d="M23.9,24.2L14.5,4c-0.1-0.2,0-0.4,0.2-0.4h1.1c0.1,0,0.2,0.1,0.2,0.1L25.5,24c0.1,0.2,0,0.4-0.2,0.4h-1.1
		C24.1,24.3,24,24.3,23.9,24.2z"/>
	<linearGradient id="SVGID_4_" gradientUnits="userSpaceOnUse" x1="-1.2696" y1="0.553" x2="49.9093" y2="30.101">
		<stop  offset="0" style="stop-color:#00A8DE"/>
		<stop  offset="0.2" style="stop-color:#333391"/>
		<stop  offset="0.4" style="stop-color:#E91388"/>
		<stop  offset="0.6" style="stop-color:#EB2D2E"/>
		<stop  offset="0.8" style="stop-color:#FDE92B"/>
		<stop  offset="1" style="stop-color:#009E54"/>
	</linearGradient>
	<path class="st3" d="M26,24.2L16.5,4c-0.1-0.2,0-0.4,0.2-0.4h1.1c0.1,0,0.2,0.1,0.2,0.1L27.5,24c0.1,0.2,0,0.4-0.2,0.4h-1.1
		C26.1,24.3,26,24.3,26,24.2z"/>
	<linearGradient id="SVGID_5_" gradientUnits="userSpaceOnUse" x1="-33.0316" y1="-14.2823" x2="18.1472" y2="15.2657">
		<stop  offset="0" style="stop-color:#00A8DE"/>
		<stop  offset="0.2" style="stop-color:#333391"/>
		<stop  offset="0.4" style="stop-color:#E91388"/>
		<stop  offset="0.6" style="stop-color:#EB2D2E"/>
		<stop  offset="0.8" style="stop-color:#FDE92B"/>
		<stop  offset="1" style="stop-color:#009E54"/>
	</linearGradient>
	<path class="st4" d="M10.1,3.7h1.7c0.1,0,0.2,0.1,0.2,0.1L21.5,24c0.1,0.2,0,0.4-0.2,0.4h-1.1c-0.1,0-0.2-0.1-0.2-0.1L11.2,5.6
		c0-0.1-0.1-0.1-0.2-0.1H9.5c-0.2,0-0.3-0.2-0.2-0.4l0.6-1.3C9.9,3.7,10,3.7,10.1,3.7z"/>
</g>
</svg>
