<?xml version="1.0" encoding="utf-8"?>
<!-- Generator: Adobe Illustrator 25.2.0, SVG Export Plug-In . SVG Version: 6.00 Build 0)  -->
<svg version="1.1" id="Layer_1" xmlns="http://www.w3.org/2000/svg" xmlns:xlink="http://www.w3.org/1999/xlink" x="0px" y="0px"
	 viewBox="0 0 28 28" style="enable-background:new 0 0 28 28;" xml:space="preserve">
<style type="text/css">
	.st0{fill:#36A5FF;}
	.st1{fill:#FF6B1C;}
	.st2{fill:#FBB60F;}
	.st3{fill:#E1FF03;}
	.st4{fill:#F82965;}
</style>
<g>
	<g>
		<path class="st0" d="M0.617,24.4h5.834c0.095,0,0.181-0.052,0.223-0.138l2.993-5.987c0.092-0.184,0.352-0.184,0.447-0.003
			l3.055,5.99c0.043,0.083,0.129,0.135,0.223,0.135h5.91c0.184,0,0.303-0.19,0.226-0.355L10.996,5.846
			c-0.04-0.089-0.129-0.144-0.226-0.144H9.12c-0.098,0-0.184,0.055-0.226,0.144L0.391,24.045C0.314,24.21,0.434,24.4,0.617,24.4z"/>
	</g>
	<path class="st1" d="M21.968,24.256L12.459,3.955C12.382,3.79,12.502,3.6,12.685,3.6h1.117c0.098,0,0.184,0.055,0.226,0.144
		l9.509,20.301c0.077,0.165-0.043,0.355-0.226,0.355h-1.117C22.097,24.4,22.008,24.345,21.968,24.256z"/>
	<path class="st2" d="M24.004,24.256L14.494,3.955C14.418,3.79,14.537,3.6,14.721,3.6h1.117c0.098,0,0.184,0.055,0.226,0.144
		l9.509,20.301c0.077,0.165-0.043,0.355-0.226,0.355H24.23C24.132,24.4,24.043,24.345,24.004,24.256z"/>
	<path class="st3" d="M26.039,24.256L16.53,3.955C16.453,3.79,16.572,3.6,16.756,3.6h1.117c0.098,0,0.184,0.055,0.226,0.144
		l9.509,20.301c0.077,0.165-0.043,0.355-0.226,0.355h-1.117C26.168,24.4,26.079,24.345,26.039,24.256z"/>
	<path class="st4" d="M10.105,3.6h1.665c0.098,0,0.184,0.055,0.226,0.144l9.509,20.301c0.077,0.165-0.043,0.355-0.226,0.355h-1.117
		c-0.098,0-0.184-0.055-0.226-0.144L11.18,5.559c-0.04-0.089-0.129-0.144-0.226-0.144H9.49c-0.184,0-0.303-0.19-0.226-0.355
		l0.615-1.316C9.919,3.655,10.007,3.6,10.105,3.6z"/>
</g>
</svg>
