<?xml version="1.0" encoding="utf-8"?>
<!-- Generator: Adobe Illustrator 25.2.0, SVG Export Plug-In . SVG Version: 6.00 Build 0)  -->
<svg version="1.1" id="Layer_1" xmlns="http://www.w3.org/2000/svg" xmlns:xlink="http://www.w3.org/1999/xlink" x="0px" y="0px"
	 viewBox="0 0 129 26" style="enable-background:new 0 0 129 26;" xml:space="preserve">
<style type="text/css">
	.st0{fill:#FFFFFF;}
	.st1{opacity:0.4;fill-rule:evenodd;clip-rule:evenodd;fill:url(#Shape_2_);enable-background:new    ;}
	.st2{opacity:0.2;fill:none;stroke:#C6C6C6;stroke-width:1.8531;enable-background:new    ;}
	.st3{fill-rule:evenodd;clip-rule:evenodd;fill:url(#SVGID_1_);}
</style>
<g>
	<path class="st0" d="M45.3,23c-1,0-1.8-0.1-2.5-0.4c-0.7-0.3-1.4-0.7-2-1.2l-0.2,1.3H38V3.8H41v6.5c1.2-0.8,2.6-1.2,4.2-1.2
		c1.9,0,3.4,0.5,4.5,1.6c1.1,1.1,1.6,2.8,1.6,5.2c0,2.4-0.5,4.2-1.6,5.3S47.1,23,45.3,23z M44.4,20.7c1.4,0,2.4-0.4,2.9-1.2
		c0.6-0.8,0.9-2,0.9-3.6c0-1.6-0.3-2.8-0.9-3.5s-1.6-1-2.9-1c-1.4,0-2.5,0.4-3.4,1.2v6.7C41.9,20.3,43,20.7,44.4,20.7z"/>
	<path class="st0" d="M55.1,22.7v-11h-2l0.3-2.3h4.8v13.3H55.1z M54.9,5.4L54.9,5.4c0-0.7,0.6-1.3,1.3-1.3h0.8
		c0.7,0,1.3,0.6,1.3,1.3v0c0,0.7-0.6,1.3-1.3,1.3h-0.8C55.4,6.7,54.9,6.1,54.9,5.4z"/>
	<path class="st0" d="M66.8,23c-1.4,0-2.5-0.4-3.2-1.1s-1.1-1.8-1.1-3.1v-7h-2V9.4h2V6.4l3-0.9v4h3.5l-0.2,2.4h-3.3v6.8
		c0,0.8,0.2,1.3,0.5,1.6s0.9,0.5,1.7,0.5c0.5,0,1-0.1,1.6-0.3v2.2C68.7,22.9,67.9,23,66.8,23z"/>
	<path class="st0" d="M78.3,23c-2.3,0-4.1-0.6-5.3-1.8c-1.2-1.2-1.8-2.9-1.8-5.2c0-2.3,0.7-4.1,2-5.2c1.3-1.1,3.1-1.7,5.3-1.7
		c0.9,0,1.7,0.1,2.3,0.2s1.2,0.3,1.8,0.6v2.3c-1-0.5-2.2-0.7-3.5-0.7c-1.5,0-2.7,0.3-3.5,1c-0.8,0.7-1.2,1.9-1.2,3.6
		c0,1.6,0.4,2.8,1.1,3.5c0.7,0.7,1.9,1.1,3.6,1.1c1.3,0,2.5-0.3,3.6-0.8v2.3c-0.6,0.2-1.3,0.4-2,0.6C80,23,79.2,23,78.3,23z"/>
	<path class="st0" d="M85.1,22.7V3.8h3.1v6.9c0.6-0.5,1.3-0.8,2.1-1.1C91.1,9.3,92,9.2,93,9.2c1.7,0,2.9,0.4,3.7,1.2
		c0.8,0.8,1.2,2.1,1.2,3.8v8.6h-3v-8.5c0-1-0.2-1.7-0.7-2.2c-0.4-0.4-1.2-0.6-2.3-0.6c-0.7,0-1.4,0.1-2,0.4
		c-0.7,0.3-1.3,0.7-1.7,1.1v9.7H85.1z"/>
	<path class="st0" d="M107.8,23c-2.3,0-4.1-0.6-5.4-1.7c-1.3-1.1-1.9-2.9-1.9-5.2c0-2.1,0.5-3.8,1.6-5.1c1.1-1.2,2.7-1.9,4.9-1.9
		c2,0,3.5,0.5,4.6,1.6c1,1.1,1.5,2.4,1.5,4.1v2.5h-9.7c0.1,1.3,0.6,2.2,1.4,2.7c0.8,0.5,2,0.7,3.6,0.7c0.7,0,1.4-0.1,2.1-0.2
		c0.7-0.1,1.3-0.3,1.9-0.5v2.2c-0.6,0.3-1.3,0.5-2.1,0.6S108.7,23,107.8,23z M103.4,15.3h7v-0.9c0-0.9-0.3-1.6-0.8-2.1
		s-1.4-0.8-2.6-0.8c-1.4,0-2.4,0.3-2.9,0.9S103.4,14,103.4,15.3z"/>
	<path class="st0" d="M116.1,22.7V9.4h2.8l0.1,1.4c0.6-0.5,1.3-0.9,2.1-1.2c0.8-0.3,1.8-0.5,2.8-0.5c1.7,0,3,0.4,3.8,1.2
		c0.8,0.8,1.2,2.1,1.2,3.8v8.6h-3v-8.5c0-1-0.2-1.7-0.6-2.2c-0.4-0.4-1.2-0.6-2.4-0.6c-0.7,0-1.4,0.1-2,0.4
		c-0.7,0.3-1.2,0.6-1.7,1.1v9.7H116.1z"/>
</g>
<linearGradient id="Shape_2_" gradientUnits="userSpaceOnUse" x1="-427.5672" y1="555.5046" x2="-427.97" y2="555.7435" gradientTransform="matrix(20.6812 14.9178 8.7512 -12.1321 4000.093 13140.2197)">
	<stop  offset="0" style="stop-color:#F7F7F7"/>
	<stop  offset="1" style="stop-color:#C6C6C6"/>
</linearGradient>
<path id="Shape" class="st1" d="M24.3,24.5c1-0.6,1.5-1.9,1.3-3l-1.2-7.3c-0.5-2.9-3-5-5.9-5L6.4,9.3l-3.9,7.3l18.5,7.8
	C22,25.1,23.3,25.2,24.3,24.5z"/>
<path id="Shape_1_" class="st2" d="M7,10.2L3.6,16l18.1,7.7l0,0c0.4,0.3,1,0.4,1.5,0.3c0.5-0.1,1-0.4,1.3-0.8s0.4-0.9,0.3-1.5
	l-1.2-7.4c-0.4-2.4-2.5-4.2-4.9-4.2L7,10.2z"/>
<linearGradient id="SVGID_1_" gradientUnits="userSpaceOnUse" x1="1.3199" y1="1.583" x2="15.9808" y2="27.7107">
	<stop  offset="0" style="stop-color:#3F3F3F"/>
	<stop  offset="1" style="stop-color:#C6C6C6"/>
</linearGradient>
<path class="st3" d="M25.1,21L12,13.5C8.2,11.3,5.8,7.3,5.8,2.9v0c0-1-0.5-1.9-1.3-2.4c0,0-0.1-0.1-0.1-0.1C4.3,0.3,4.2,0.3,4.1,0.2
	c-0.1,0-0.1,0-0.2-0.1c-0.1,0-0.2-0.1-0.3-0.1C2.9-0.1,2.3,0,1.7,0.3C0.6,0.8,0,1.9,0,3.1l0,13v5.2c0,2.6,2.1,4.6,4.6,4.6l18.3,0
	c0.6,0,1.3-0.2,1.8-0.5C26.2,24.3,26.4,22.2,25.1,21z M11.1,25.2c-2.9,0-5.3-2.4-5.3-5.3s2.4-5.3,5.3-5.3c2.9,0,5.3,2.4,5.3,5.3
	S14,25.2,11.1,25.2z"/>
</svg>
