<?xml version="1.0" encoding="utf-8"?>
<!-- Generator: Adobe Illustrator 25.2.0, SVG Export Plug-In . SVG Version: 6.00 Build 0)  -->
<svg version="1.1" id="Layer_1" xmlns="http://www.w3.org/2000/svg" xmlns:xlink="http://www.w3.org/1999/xlink" x="0px" y="0px"
	 viewBox="0 0 28 28" style="enable-background:new 0 0 28 28;" xml:space="preserve">
<style type="text/css">
	.st0{fill:#E62E57;}
	.st1{fill:#990F5C;}
	.st2{fill:#7F065D;}
	.st3{fill:#66005B;}
	.st4{fill:#B21B55;}
</style>
<g>
	<g>
		<path class="st0" d="M0.709,24.258h5.794c0.094,0,0.179-0.052,0.222-0.137l2.973-5.946c0.091-0.182,0.35-0.182,0.444-0.003
			l3.034,5.949c0.043,0.082,0.128,0.134,0.222,0.134h5.87c0.182,0,0.301-0.188,0.225-0.353L11.017,5.831
			c-0.04-0.088-0.128-0.143-0.225-0.143H9.153c-0.097,0-0.182,0.055-0.225,0.143L0.484,23.905
			C0.408,24.069,0.527,24.258,0.709,24.258z"/>
	</g>
	<path class="st1" d="M21.914,24.115L12.47,3.953C12.394,3.788,12.512,3.6,12.694,3.6h1.109c0.097,0,0.182,0.055,0.225,0.143
		l9.444,20.162c0.076,0.164-0.043,0.353-0.225,0.353h-1.109C22.041,24.258,21.953,24.203,21.914,24.115z"/>
	<path class="st2" d="M23.935,24.115L14.491,3.953C14.415,3.788,14.533,3.6,14.716,3.6h1.109c0.097,0,0.182,0.055,0.225,0.143
		l9.444,20.162c0.076,0.164-0.043,0.353-0.225,0.353H24.16C24.063,24.258,23.975,24.203,23.935,24.115z"/>
	<path class="st3" d="M25.957,24.115L16.512,3.953C16.436,3.788,16.555,3.6,16.737,3.6h1.109c0.097,0,0.182,0.055,0.225,0.143
		l9.444,20.162c0.076,0.164-0.043,0.353-0.225,0.353h-1.109C26.084,24.258,25.996,24.203,25.957,24.115z"/>
	<path class="st4" d="M10.132,3.6h1.654c0.097,0,0.182,0.055,0.225,0.143l9.444,20.162c0.076,0.164-0.043,0.353-0.225,0.353H20.12
		c-0.097,0-0.182-0.055-0.225-0.143L11.199,5.545c-0.04-0.088-0.128-0.143-0.225-0.143H9.521c-0.182,0-0.301-0.188-0.225-0.353
		l0.611-1.307C9.947,3.655,10.035,3.6,10.132,3.6z"/>
</g>
</svg>
